{
    "asset": {
        "version": "2.0",
        "generator": "Open Asset Import Library (assimp v5.4.0)"
    },
    "extensionsUsed": [
        "KHR_materials_volume",
        "FB_ngon_encoding"
    ],
    "accessors": [
        {
            "bufferView": 0,
            "byteOffset": 0,
            "componentType": 5126,
            "count": 30879,
            "type": "VEC3",
            "max": [
                0.4001980125904083,
                0.49426400661468506,
                0.9899100065231323
            ],
            "min": [
                -0.3833009898662567,
                -0.4970549941062927,
                -1.0008989572525024
            ]
        },
        {
            "bufferView": 1,
            "byteOffset": 0,
            "componentType": 5126,
            "count": 30879,
            "type": "VEC3",
            "max": [
                0.9999942779541016,
                0.9998801946640015,
                0.9999078512191772
            ],
            "min": [
                -0.9999061822891235,
                -0.9998732805252075,
                -0.9996992945671082
            ]
        },
        {
            "bufferView": 2,
            "byteOffset": 0,
            "componentType": 5126,
            "count": 30879,
            "type": "VEC2",
            "max": [
                0.994140625,
                0.998046875
            ],
            "min": [
                0.0017709732055664063,
                0.0017709732055664063
            ]
        },
        {
            "bufferView": 3,
            "byteOffset": 0,
            "componentType": 5125,
            "count": 98571,
            "type": "SCALAR",
            "max": [
                30878
            ],
            "min": [
                0
            ]
        }
    ],
    "buffers": [
        {
            "byteLength": 1382412,
            "uri": "neuron_1127190126_refine_0.bin"
        }
    ],
    "bufferViews": [
        {
            "buffer": 0,
            "byteOffset": 0,
            "byteLength": 370548,
            "target": 34962
        },
        {
            "buffer": 0,
            "byteOffset": 370548,
            "byteLength": 370548,
            "target": 34962
        },
        {
            "buffer": 0,
            "byteOffset": 741096,
            "byteLength": 247032,
            "target": 34962
        },
        {
            "buffer": 0,
            "byteOffset": 988128,
            "byteLength": 394284,
            "target": 34963
        }
    ],
    "images": [
        {
            "uri": "textures/image_0.png"
        }
    ],
    "materials": [
        {
            "name": "Mat_1",
            "pbrMetallicRoughness": {
                "baseColorTexture": {
                    "index": 0
                },
                "metallicFactor": 0.0,
                "roughnessFactor": 0.800000011920929
            },
            "doubleSided": true
        }
    ],
    "meshes": [
        {
            "name": "meshes[0]",
            "primitives": [
                {
                    "mode": 4,
                    "material": 0,
                    "indices": 3,
                    "attributes": {
                        "POSITION": 0,
                        "NORMAL": 1,
                        "TEXCOORD_0": 2
                    }
                }
            ]
        }
    ],
    "nodes": [
        {
            "name": "neuron_1127190126_refine",
            "children": [
                1
            ]
        },
        {
            "name": "mesh_0",
            "mesh": 0
        }
    ],
    "samplers": [
        {
            "magFilter": 9729,
            "minFilter": 9987
        }
    ],
    "scenes": [
        {
            "nodes": [
                0
            ]
        }
    ],
    "textures": [
        {
            "source": 0,
            "sampler": 0
        }
    ],
    "scene": 0
}